<svg xmlns="http://www.w3.org/2000/svg" width="88" height="88" fill="none" xmlns:v="https://vecta.io/nano"><style><![CDATA[.B{stroke-opacity:.8}.C{stroke-linejoin:round}.D{stroke-linecap:round}]]></style><g stroke="#000"><path d="M63.513 86.969V82.14c-2.281.857-3.518.991-5.572 0s-2.798-2.978-2.6-9.659c-1.202-.039-1.903-.164-3.343-1.115 0 0-.743-.371-.743-1.114s3.871-6.782 3.871-6.782v-.371s.979-4.578 2.815-7.144 6.667-4.988 6.687-5.02c3.488-1.103 5.526-1.152 9.287-.371 2.884.982 4.42 1.826 7.058 3.715 2.577 2.501 2.948 3.87 3.715 6.315 1.094 3.732.831 5.624 0 8.916-1.222 3.589-2.506 5.31-4.458 8.544v8.916"/><path d="M69.017 75.54V61.192m0 0l-3.644 3.416m3.644-3.416l3.644 3.416" class="C D"/><circle cx="67.778" cy="8.089" r="2.456" class="B"/><circle cx="55.659" cy="24.346" r="2.456" class="B"/><circle cx="79.897" cy="24.346" r="2.456" class="B"/><g class="C B"><path d="M61.719 18.658c4.406-8.737 7.685-8.868 12.562 0H61.719zM49.6 34.915c4.406-8.737 7.685-8.867 12.562 0H49.6zm24.238 0c4.407-8.737 7.685-8.867 12.562 0H73.838z"/><g stroke-width=".833"><path d="M68.053 32.8c-1.205 0-1.33-1.048-1.317-1.465h2.635c-.021.405-.113 1.465-1.318 1.465zm-1.317-2.712c-.055-.713-1.588-1.438-1.588-3.241 0-1.923 1.397-2.943 2.919-2.981 1.523.039 2.919 1.058 2.919 2.981 0 1.803-1.544 2.52-1.615 3.241h-2.635z"/><path d="M67.994 20.4v1.824m4.281-.73l-1.258 1.29m-7.292-1.29l1.258 1.29" class="D"/></g></g><circle cx="19.778" cy="8.089" r="2.456" class="B"/><circle cx="7.659" cy="24.346" r="2.456" class="B"/><circle cx="31.897" cy="24.346" r="2.456" class="B"/><path d="M13.719 18.658c4.406-8.737 7.685-8.868 12.562 0H13.719zM1.6 34.915c4.406-8.737 7.685-8.867 12.562 0H1.6zm24.238 0c4.407-8.737 7.685-8.867 12.562 0H25.838z" class="C B"/><path d="M20 20.899v5.076m0 0l-4.441 3.807M20 25.975l4.441 3.807" class="B"/><g class="C B"><path d="M20.2 87.192c-3.732 0-4.118-3.246-4.078-4.537h8.158c-.066 1.255-.349 4.537-4.08 4.537zm-4.078-8.398c-.171-2.209-4.917-4.452-4.917-10.034 0-5.954 4.324-9.11 9.037-9.23 4.714.12 9.038 3.276 9.038 9.23 0 5.582-4.78 7.801-5.001 10.034h-8.158z"/><path d="M20.016 48.8v5.647m13.256-2.259l-3.894 3.993M6.8 52.188l3.894 3.993" class="D"/></g></g><path d="M19.117 71.788h1.462v-.097c.02-1.176.358-1.703 1.227-2.24.915-.552 1.478-1.329 1.478-2.48 0-1.662-1.258-2.787-3.135-2.787-1.723 0-3.104 1.007-3.17 2.848h1.554c.061-1.084.834-1.56 1.616-1.56.869 0 1.575.578 1.575 1.483 0 .762-.476 1.299-1.084 1.677-.951.583-1.514 1.161-1.524 3.058v.097zm.772 3.109c.557 0 1.023-.455 1.023-1.023a1.03 1.03 0 0 0-1.023-1.018c-.562 0-1.023.46-1.023 1.018 0 .568.46 1.023 1.023 1.023z" fill="#000" fill-opacity=".8"/></svg>