<svg xmlns="http://www.w3.org/2000/svg" width="60" height="60" fill="none" xmlns:v="https://vecta.io/nano"><style><![CDATA[.B{stroke-opacity:.8}.C{stroke-linejoin:round}]]></style><g stroke="#000" class="B"><g stroke-width="1.5"><circle cx="29.668" cy="12.133" r="3.684"/><circle cx="11.489" cy="36.519" r="3.684"/><circle cx="47.846" cy="36.519" r="3.684"/><path d="M20.578 27.987c6.61-13.105 11.528-13.301 18.843 0H20.578zM2.4 52.373c6.61-13.105 11.528-13.301 18.843 0H2.4zm36.357 0c6.61-13.105 11.528-13.301 18.843 0H38.757z" class="C"/></g><g stroke-width="1.25" class="C"><path d="M30.08 49.2c-1.808 0-1.995-1.572-1.976-2.198h3.952c-.032.608-.169 2.198-1.977 2.198zm-1.976-4.069c-.083-1.07-2.382-2.157-2.382-4.861 0-2.884 2.095-4.414 4.378-4.472 2.284.058 4.379 1.587 4.379 4.472 0 2.704-2.316 3.779-2.423 4.861h-3.952z"/><path d="M29.991 30.6v2.736m6.422-1.094l-1.886 1.935m-10.939-1.935l1.887 1.935" stroke-linecap="round"/></g></g></svg>