<svg xmlns="http://www.w3.org/2000/svg" width="60" height="60" fill="none" stroke="#000" stroke-width="1.5" xmlns:v="https://vecta.io/nano"><path d="M23.269 58.454V51.21c-3.422 1.285-5.277 1.487-8.359 0s-4.197-4.468-3.901-14.488c-1.803-.059-2.854-.247-5.015-1.672 0 0-1.114-.557-1.114-1.672s5.807-10.173 5.807-10.173v-.557s1.469-6.867 4.223-10.716 10.001-7.483 10.03-7.53c5.232-1.654 8.289-1.728 13.931-.557 4.325 1.474 6.63 2.739 10.588 5.572 3.865 3.751 4.422 5.805 5.572 9.473 1.642 5.599 1.247 8.437 0 13.374-1.834 5.383-3.759 7.965-6.687 12.816v13.374"/><path d="M31.525 41.309V19.788m0 0l-5.466 5.124m5.466-5.124l5.466 5.124" stroke-linecap="round" stroke-linejoin="round"/></svg>