<svg xmlns="http://www.w3.org/2000/svg" width="48" height="48" fill="#000" xmlns:v="https://vecta.io/nano"><path d="M10.899 48a10.83 10.83 0 0 0 7.707-3.192l9.201-9.201A10.83 10.83 0 0 0 31 27.899a10.84 10.84 0 0 0-7.708-10.424l-.584 1.912A8.85 8.85 0 0 1 29 27.899c0 2.377-.926 4.612-2.606 6.293l-9.201 9.201C15.512 45.074 13.276 46 10.899 46A8.91 8.91 0 0 1 2 37.101c0-2.377.926-4.612 2.606-6.293l9.201-9.201a8.91 8.91 0 0 1 .93-.809l-1.205-1.597a11 11 0 0 0-1.139.991l-9.201 9.201A10.83 10.83 0 0 0 0 37.101C0 43.11 4.89 48 10.899 48zM37.101 0a10.83 10.83 0 0 0-7.707 3.192l-9.201 9.201A10.83 10.83 0 0 0 17 20.101c0 5.208 3.705 9.707 8.81 10.699l.381-1.963a8.91 8.91 0 0 1-7.19-8.736c0-2.377.926-4.612 2.606-6.293l9.201-9.201A8.84 8.84 0 0 1 37.101 2 8.91 8.91 0 0 1 46 10.899c0 2.377-.926 4.612-2.606 6.293l-9.2 9.201a8.86 8.86 0 0 1-.809.716l1.23 1.576a10.85 10.85 0 0 0 .991-.877l9.201-9.201A10.83 10.83 0 0 0 48 10.899C48 4.89 43.11 0 37.101 0zM3.215 15h6.429v-1.571H5.088V4.657H3.215V15zM38.77 43.444h6.43v-1.571h-4.556V33.1H38.77v10.343z"/></svg>