<svg width="48" height="48" viewBox="0 0 48 48" fill="none" xmlns="http://www.w3.org/2000/svg">
<path d="M10.899 48.0001C13.81 48.0001 16.547 46.8661 18.606 44.8081L27.807 35.6071C29.866 33.5481 31 30.8111 31 27.8991C31 23.0741 27.902 18.8851 23.292 17.4751L22.708 19.3871C26.472 20.5391 29 23.9591 29 27.8991C29 30.2761 28.074 32.5111 26.394 34.1921L17.193 43.3931C15.512 45.0741 13.276 46.0001 10.899 46.0001C5.992 46.0001 2 42.0081 2 37.1011C2 34.7241 2.926 32.4891 4.606 30.8081L13.807 21.6071C14.098 21.3161 14.411 21.0441 14.737 20.7981L13.532 19.2011C13.134 19.5021 12.75 19.8351 12.393 20.1921L3.192 29.3931C1.134 31.4521 0 34.1891 0 37.1011C0 43.1101 4.89 48.0001 10.899 48.0001Z" fill="black"/>
<path d="M37.1011 0C34.1901 0 31.4531 1.134 29.3941 3.192L20.1931 12.393C18.1341 14.452 17.0001 17.189 17.0001 20.101C17.0001 25.309 20.7051 29.808 25.8101 30.8L26.1911 28.837C22.0251 28.027 19.0011 24.354 19.0011 20.101C19.0011 17.724 19.9271 15.489 21.6071 13.808L30.8081 4.607C32.4881 2.926 34.7241 2 37.1011 2C42.0081 2 46.0001 5.992 46.0001 10.899C46.0001 13.276 45.0741 15.511 43.3941 17.192L34.1941 26.393C33.9351 26.651 33.6641 26.892 33.3851 27.109L34.6151 28.685C34.9571 28.418 35.2911 28.123 35.6061 27.808L44.8071 18.607C46.8661 16.548 48.0001 13.811 48.0001 10.899C48.0001 4.89 43.1101 0 37.1011 0Z" fill="black"/>
<path d="M3.2147 15H9.64399V13.4293H5.08844V4.65656H3.2147V15Z" fill="black"/>
<path d="M38.7702 43.4443H45.1995V41.8736H40.644V33.1009H38.7702V43.4443Z" fill="black"/>
</svg>
