<svg xmlns="http://www.w3.org/2000/svg" width="60" height="60" fill="none" xmlns:v="https://vecta.io/nano"><g stroke="#000" stroke-width="1.5" stroke-linejoin="round"><path d="M30.3 58.787c-5.597 0-6.177-4.868-6.117-6.805H36.42c-.099 1.882-.523 6.805-6.12 6.805zM24.183 46.19c-.256-3.314-7.375-6.678-7.375-15.051 0-8.93 6.486-13.666 13.556-13.845 7.072.18 13.557 4.915 13.557 13.845.001 8.373-7.17 11.702-7.502 15.051H24.183z" stroke-opacity=".8"/><path d="M30.024 1.2v8.471m19.884-3.389l-5.841 5.99M10.2 6.282l5.841 5.99" stroke-opacity=".8" stroke-linecap="round"/></g><path d="M28.676 35.682h2.194v-.146c.031-1.764.537-2.554 1.841-3.36 1.373-.828 2.217-1.994 2.217-3.72 0-2.493-1.887-4.18-4.702-4.18-2.585 0-4.656 1.511-4.756 4.273h2.332c.092-1.626 1.25-2.34 2.424-2.34 1.304 0 2.362.867 2.362 2.224 0 1.143-.713 1.948-1.626 2.516-1.427.874-2.271 1.741-2.286 4.587v.146zm1.158 4.664a1.54 1.54 0 0 0 1.534-1.534c0-.836-.698-1.526-1.534-1.526-.844 0-1.534.69-1.534 1.526 0 .851.69 1.534 1.534 1.534z" fill="#000" fill-opacity=".8"/></svg>